<?xml version="1.0" encoding="UTF-8" standalone="no"?>
<!DOCTYPE svg PUBLIC "-//W3C//DTD SVG 1.1//EN"
 "http://www.w3.org/Graphics/SVG/1.1/DTD/svg11.dtd">
<!-- Generated by graphviz version 2.30.1 (20201013.1554)
 -->
<!-- Title: snakemake_dag Pages: 1 -->
<svg width="311pt" height="260pt"
 viewBox="0.00 0.00 311.00 260.00" xmlns="http://www.w3.org/2000/svg" xmlns:xlink="http://www.w3.org/1999/xlink">
<g id="graph0" class="graph" transform="scale(1 1) rotate(0) translate(4 256)">
<title>snakemake_dag</title>
<polygon fill="white" stroke="white" points="-4,5 -4,-256 308,-256 308,5 -4,5"/>
<!-- 0 -->
<g id="node1" class="node"><title>0</title>
<path fill="none" stroke="#56d88a" stroke-width="2" d="M166,-36C166,-36 136,-36 136,-36 130,-36 124,-30 124,-24 124,-24 124,-12 124,-12 124,-6 130,-0 136,-0 136,-0 166,-0 166,-0 172,-0 178,-6 178,-12 178,-12 178,-24 178,-24 178,-30 172,-36 166,-36"/>
<text text-anchor="middle" x="151" y="-15.5" font-family="sans" font-size="10.00">all</text>
</g>
<!-- 1 -->
<g id="node2" class="node"><title>1</title>
<path fill="none" stroke="#d85656" stroke-width="2" d="M192,-108C192,-108 110,-108 110,-108 104,-108 98,-102 98,-96 98,-96 98,-84 98,-84 98,-78 104,-72 110,-72 110,-72 192,-72 192,-72 198,-72 204,-78 204,-84 204,-84 204,-96 204,-96 204,-102 198,-108 192,-108"/>
<text text-anchor="middle" x="151" y="-87.5" font-family="sans" font-size="10.00">preprocess_seurat</text>
</g>
<!-- 1&#45;&gt;0 -->
<g id="edge1" class="edge"><title>1&#45;&gt;0</title>
<path fill="none" stroke="grey" stroke-width="2" d="M151,-71.6966C151,-63.9827 151,-54.7125 151,-46.1124"/>
<polygon fill="grey" stroke="grey" points="154.5,-46.1043 151,-36.1043 147.5,-46.1044 154.5,-46.1043"/>
</g>
<!-- 2 -->
<g id="node3" class="node"><title>2</title>
<path fill="none" stroke="#56c1d8" stroke-width="2" d="M176.25,-180C176.25,-180 125.75,-180 125.75,-180 119.75,-180 113.75,-174 113.75,-168 113.75,-168 113.75,-156 113.75,-156 113.75,-150 119.75,-144 125.75,-144 125.75,-144 176.25,-144 176.25,-144 182.25,-144 188.25,-150 188.25,-156 188.25,-156 188.25,-168 188.25,-168 188.25,-174 182.25,-180 176.25,-180"/>
<text text-anchor="middle" x="151" y="-159.5" font-family="sans" font-size="10.00">demultiplex</text>
</g>
<!-- 2&#45;&gt;1 -->
<g id="edge2" class="edge"><title>2&#45;&gt;1</title>
<path fill="none" stroke="grey" stroke-width="2" d="M151,-143.697C151,-135.983 151,-126.712 151,-118.112"/>
<polygon fill="grey" stroke="grey" points="154.5,-118.104 151,-108.104 147.5,-118.104 154.5,-118.104"/>
</g>
<!-- 3 -->
<g id="node4" class="node"><title>3</title>
<path fill="none" stroke="#88d856" stroke-width="2" d="M130.25,-252C130.25,-252 11.75,-252 11.75,-252 5.75,-252 -0.25,-246 -0.25,-240 -0.25,-240 -0.25,-228 -0.25,-228 -0.25,-222 5.75,-216 11.75,-216 11.75,-216 130.25,-216 130.25,-216 136.25,-216 142.25,-222 142.25,-228 142.25,-228 142.25,-240 142.25,-240 142.25,-246 136.25,-252 130.25,-252"/>
<text text-anchor="middle" x="71" y="-237" font-family="sans" font-size="10.00">run_count_rna</text>
<text text-anchor="middle" x="71" y="-226" font-family="sans" font-size="10.00">sample: pbmc_1k_protein</text>
</g>
<!-- 3&#45;&gt;2 -->
<g id="edge3" class="edge"><title>3&#45;&gt;2</title>
<path fill="none" stroke="grey" stroke-width="2" d="M90.7753,-215.697C100.754,-206.965 113.011,-196.24 123.857,-186.75"/>
<polygon fill="grey" stroke="grey" points="126.231,-189.323 131.452,-180.104 121.622,-184.055 126.231,-189.323"/>
</g>
<!-- 4 -->
<g id="node5" class="node"><title>4</title>
<path fill="none" stroke="#d8bc56" stroke-width="2" d="M291.25,-252C291.25,-252 172.75,-252 172.75,-252 166.75,-252 160.75,-246 160.75,-240 160.75,-240 160.75,-228 160.75,-228 160.75,-222 166.75,-216 172.75,-216 172.75,-216 291.25,-216 291.25,-216 297.25,-216 303.25,-222 303.25,-228 303.25,-228 303.25,-240 303.25,-240 303.25,-246 297.25,-252 291.25,-252"/>
<text text-anchor="middle" x="232" y="-237" font-family="sans" font-size="10.00">run_count_hto</text>
<text text-anchor="middle" x="232" y="-226" font-family="sans" font-size="10.00">sample: pbmc_1k_protein</text>
</g>
<!-- 4&#45;&gt;2 -->
<g id="edge4" class="edge"><title>4&#45;&gt;2</title>
<path fill="none" stroke="grey" stroke-width="2" d="M211.978,-215.697C201.874,-206.965 189.464,-196.24 178.482,-186.75"/>
<polygon fill="grey" stroke="grey" points="180.647,-183.995 170.792,-180.104 176.07,-189.291 180.647,-183.995"/>
</g>
</g>
</svg>
