<?xml version="1.0" encoding="UTF-8" standalone="no"?>
<!DOCTYPE svg PUBLIC "-//W3C//DTD SVG 1.1//EN"
 "http://www.w3.org/Graphics/SVG/1.1/DTD/svg11.dtd">
<!-- Generated by graphviz version 2.30.1 (20201013.1554)
 -->
<!-- Title: snakemake_dag Pages: 1 -->
<svg width="311pt" height="188pt"
 viewBox="0.00 0.00 311.00 188.00" xmlns="http://www.w3.org/2000/svg" xmlns:xlink="http://www.w3.org/1999/xlink">
<g id="graph0" class="graph" transform="scale(1 1) rotate(0) translate(4 184)">
<title>snakemake_dag</title>
<polygon fill="white" stroke="white" points="-4,5 -4,-184 308,-184 308,5 -4,5"/>
<!-- 0 -->
<g id="node1" class="node"><title>0</title>
<path fill="none" stroke="#56c1d8" stroke-width="2" d="M166,-36C166,-36 136,-36 136,-36 130,-36 124,-30 124,-24 124,-24 124,-12 124,-12 124,-6 130,-0 136,-0 136,-0 166,-0 166,-0 172,-0 178,-6 178,-12 178,-12 178,-24 178,-24 178,-30 172,-36 166,-36"/>
<text text-anchor="middle" x="151" y="-15.5" font-family="sans" font-size="10.00">all</text>
</g>
<!-- 1 -->
<g id="node2" class="node"><title>1</title>
<path fill="none" stroke="#56d88a" stroke-width="2" d="M133.25,-108C133.25,-108 82.75,-108 82.75,-108 76.75,-108 70.75,-102 70.75,-96 70.75,-96 70.75,-84 70.75,-84 70.75,-78 76.75,-72 82.75,-72 82.75,-72 133.25,-72 133.25,-72 139.25,-72 145.25,-78 145.25,-84 145.25,-84 145.25,-96 145.25,-96 145.25,-102 139.25,-108 133.25,-108"/>
<text text-anchor="middle" x="108" y="-87.5" font-family="sans" font-size="10.00">demultiplex</text>
</g>
<!-- 1&#45;&gt;0 -->
<g id="edge1" class="edge"><title>1&#45;&gt;0</title>
<path fill="none" stroke="grey" stroke-width="2" d="M118.629,-71.6966C123.628,-63.5589 129.691,-53.689 135.212,-44.7013"/>
<polygon fill="grey" stroke="grey" points="138.241,-46.4571 140.493,-36.1043 132.277,-42.7931 138.241,-46.4571"/>
</g>
<!-- 2 -->
<g id="node3" class="node"><title>2</title>
<path fill="none" stroke="#d85656" stroke-width="2" stroke-dasharray="5,2" d="M130.25,-180C130.25,-180 11.75,-180 11.75,-180 5.75,-180 -0.25,-174 -0.25,-168 -0.25,-168 -0.25,-156 -0.25,-156 -0.25,-150 5.75,-144 11.75,-144 11.75,-144 130.25,-144 130.25,-144 136.25,-144 142.25,-150 142.25,-156 142.25,-156 142.25,-168 142.25,-168 142.25,-174 136.25,-180 130.25,-180"/>
<text text-anchor="middle" x="71" y="-165" font-family="sans" font-size="10.00">run_count_rna</text>
<text text-anchor="middle" x="71" y="-154" font-family="sans" font-size="10.00">sample: pbmc_1k_protein</text>
</g>
<!-- 2&#45;&gt;1 -->
<g id="edge3" class="edge"><title>2&#45;&gt;1</title>
<path fill="none" stroke="grey" stroke-width="2" d="M80.1461,-143.697C84.4026,-135.644 89.5558,-125.894 94.2664,-116.982"/>
<polygon fill="grey" stroke="grey" points="97.3803,-118.581 98.9591,-108.104 91.1917,-115.31 97.3803,-118.581"/>
</g>
<!-- 4 -->
<g id="node5" class="node"><title>4</title>
<path fill="none" stroke="#d8bc56" stroke-width="2" stroke-dasharray="5,2" d="M214.25,-108C214.25,-108 175.75,-108 175.75,-108 169.75,-108 163.75,-102 163.75,-96 163.75,-96 163.75,-84 163.75,-84 163.75,-78 169.75,-72 175.75,-72 175.75,-72 214.25,-72 214.25,-72 220.25,-72 226.25,-78 226.25,-84 226.25,-84 226.25,-96 226.25,-96 226.25,-102 220.25,-108 214.25,-108"/>
<text text-anchor="middle" x="195" y="-87.5" font-family="sans" font-size="10.00">summary</text>
</g>
<!-- 2&#45;&gt;4 -->
<g id="edge5" class="edge"><title>2&#45;&gt;4</title>
<path fill="none" stroke="grey" stroke-width="2" d="M101.334,-143.876C117.697,-134.639 138.083,-123.131 155.654,-113.212"/>
<polygon fill="grey" stroke="grey" points="157.562,-116.154 164.55,-108.19 154.121,-110.058 157.562,-116.154"/>
</g>
<!-- 3 -->
<g id="node4" class="node"><title>3</title>
<path fill="none" stroke="#88d856" stroke-width="2" stroke-dasharray="5,2" d="M291.25,-180C291.25,-180 172.75,-180 172.75,-180 166.75,-180 160.75,-174 160.75,-168 160.75,-168 160.75,-156 160.75,-156 160.75,-150 166.75,-144 172.75,-144 172.75,-144 291.25,-144 291.25,-144 297.25,-144 303.25,-150 303.25,-156 303.25,-156 303.25,-168 303.25,-168 303.25,-174 297.25,-180 291.25,-180"/>
<text text-anchor="middle" x="232" y="-165" font-family="sans" font-size="10.00">run_count_hto</text>
<text text-anchor="middle" x="232" y="-154" font-family="sans" font-size="10.00">sample: pbmc_1k_protein</text>
</g>
<!-- 3&#45;&gt;1 -->
<g id="edge4" class="edge"><title>3&#45;&gt;1</title>
<path fill="none" stroke="grey" stroke-width="2" d="M201.666,-143.876C185.303,-134.639 164.917,-123.131 147.346,-113.212"/>
<polygon fill="grey" stroke="grey" points="148.879,-110.058 138.45,-108.19 145.438,-116.154 148.879,-110.058"/>
</g>
<!-- 3&#45;&gt;4 -->
<g id="edge6" class="edge"><title>3&#45;&gt;4</title>
<path fill="none" stroke="grey" stroke-width="2" d="M222.854,-143.697C218.597,-135.644 213.444,-125.894 208.734,-116.982"/>
<polygon fill="grey" stroke="grey" points="211.808,-115.31 204.041,-108.104 205.62,-118.581 211.808,-115.31"/>
</g>
<!-- 4&#45;&gt;0 -->
<g id="edge2" class="edge"><title>4&#45;&gt;0</title>
<path fill="none" stroke="grey" stroke-width="2" d="M184.124,-71.6966C179.008,-63.5589 172.805,-53.689 167.155,-44.7013"/>
<polygon fill="grey" stroke="grey" points="170.036,-42.7081 161.751,-36.1043 164.11,-46.4333 170.036,-42.7081"/>
</g>
</g>
</svg>
