<?xml version="1.0" encoding="UTF-8" standalone="no"?>
<!DOCTYPE svg PUBLIC "-//W3C//DTD SVG 1.1//EN"
 "http://www.w3.org/Graphics/SVG/1.1/DTD/svg11.dtd">
<!-- Generated by graphviz version 2.30.1 (20201013.1554)
 -->
<!-- Title: snakemake_dag Pages: 1 -->
<svg width="198pt" height="188pt"
 viewBox="0.00 0.00 198.00 188.00" xmlns="http://www.w3.org/2000/svg" xmlns:xlink="http://www.w3.org/1999/xlink">
<g id="graph0" class="graph" transform="scale(1 1) rotate(0) translate(4 184)">
<title>snakemake_dag</title>
<polygon fill="white" stroke="white" points="-4,5 -4,-184 195,-184 195,5 -4,5"/>
<!-- 0 -->
<g id="node1" class="node"><title>0</title>
<path fill="none" stroke="#56d88a" stroke-width="2" d="M109,-36C109,-36 79,-36 79,-36 73,-36 67,-30 67,-24 67,-24 67,-12 67,-12 67,-6 73,-0 79,-0 79,-0 109,-0 109,-0 115,-0 121,-6 121,-12 121,-12 121,-24 121,-24 121,-30 115,-36 109,-36"/>
<text text-anchor="middle" x="94" y="-15.5" font-family="sans" font-size="10.00">all</text>
</g>
<!-- 1 -->
<g id="node2" class="node"><title>1</title>
<path fill="none" stroke="#d8bc56" stroke-width="2" d="M76.25,-108C76.25,-108 25.75,-108 25.75,-108 19.75,-108 13.75,-102 13.75,-96 13.75,-96 13.75,-84 13.75,-84 13.75,-78 19.75,-72 25.75,-72 25.75,-72 76.25,-72 76.25,-72 82.25,-72 88.25,-78 88.25,-84 88.25,-84 88.25,-96 88.25,-96 88.25,-102 82.25,-108 76.25,-108"/>
<text text-anchor="middle" x="51" y="-87.5" font-family="sans" font-size="10.00">demultiplex</text>
</g>
<!-- 1&#45;&gt;0 -->
<g id="edge2" class="edge"><title>1&#45;&gt;0</title>
<path fill="none" stroke="grey" stroke-width="2" d="M61.6292,-71.6966C66.6281,-63.5589 72.691,-53.689 78.2121,-44.7013"/>
<polygon fill="grey" stroke="grey" points="81.2411,-46.4571 83.4931,-36.1043 75.2766,-42.7931 81.2411,-46.4571"/>
</g>
<!-- 2 -->
<g id="node3" class="node"><title>2</title>
<path fill="none" stroke="#88d856" stroke-width="2" d="M74,-180C74,-180 12,-180 12,-180 6,-180 0,-174 0,-168 0,-168 0,-156 0,-156 0,-150 6,-144 12,-144 12,-144 74,-144 74,-144 80,-144 86,-150 86,-156 86,-156 86,-168 86,-168 86,-174 80,-180 74,-180"/>
<text text-anchor="middle" x="43" y="-159.5" font-family="sans" font-size="10.00">run_count_rna</text>
</g>
<!-- 2&#45;&gt;1 -->
<g id="edge4" class="edge"><title>2&#45;&gt;1</title>
<path fill="none" stroke="grey" stroke-width="2" d="M44.9775,-143.697C45.8591,-135.983 46.9186,-126.712 47.9014,-118.112"/>
<polygon fill="grey" stroke="grey" points="51.387,-118.437 49.0452,-108.104 44.4323,-117.642 51.387,-118.437"/>
</g>
<!-- 4 -->
<g id="node5" class="node"><title>4</title>
<path fill="none" stroke="#d85656" stroke-width="2" d="M157.25,-108C157.25,-108 118.75,-108 118.75,-108 112.75,-108 106.75,-102 106.75,-96 106.75,-96 106.75,-84 106.75,-84 106.75,-78 112.75,-72 118.75,-72 118.75,-72 157.25,-72 157.25,-72 163.25,-72 169.25,-78 169.25,-84 169.25,-84 169.25,-96 169.25,-96 169.25,-102 163.25,-108 157.25,-108"/>
<text text-anchor="middle" x="138" y="-87.5" font-family="sans" font-size="10.00">summary</text>
</g>
<!-- 2&#45;&gt;4 -->
<g id="edge6" class="edge"><title>2&#45;&gt;4</title>
<path fill="none" stroke="grey" stroke-width="2" d="M66.4832,-143.697C78.5626,-134.796 93.4542,-123.823 106.516,-114.199"/>
<polygon fill="grey" stroke="grey" points="108.813,-116.854 114.787,-108.104 104.66,-111.219 108.813,-116.854"/>
</g>
<!-- 3 -->
<g id="node4" class="node"><title>3</title>
<path fill="none" stroke="#56c1d8" stroke-width="2" d="M178,-180C178,-180 116,-180 116,-180 110,-180 104,-174 104,-168 104,-168 104,-156 104,-156 104,-150 110,-144 116,-144 116,-144 178,-144 178,-144 184,-144 190,-150 190,-156 190,-156 190,-168 190,-168 190,-174 184,-180 178,-180"/>
<text text-anchor="middle" x="147" y="-159.5" font-family="sans" font-size="10.00">run_count_hto</text>
</g>
<!-- 3&#45;&gt;1 -->
<g id="edge3" class="edge"><title>3&#45;&gt;1</title>
<path fill="none" stroke="grey" stroke-width="2" d="M123.27,-143.697C111.063,-134.796 96.0147,-123.823 82.8156,-114.199"/>
<polygon fill="grey" stroke="grey" points="84.5996,-111.168 74.4574,-108.104 80.4753,-116.824 84.5996,-111.168"/>
</g>
<!-- 3&#45;&gt;4 -->
<g id="edge5" class="edge"><title>3&#45;&gt;4</title>
<path fill="none" stroke="grey" stroke-width="2" d="M144.775,-143.697C143.783,-135.983 142.592,-126.712 141.486,-118.112"/>
<polygon fill="grey" stroke="grey" points="144.946,-117.576 140.199,-108.104 138.003,-118.469 144.946,-117.576"/>
</g>
<!-- 4&#45;&gt;0 -->
<g id="edge1" class="edge"><title>4&#45;&gt;0</title>
<path fill="none" stroke="grey" stroke-width="2" d="M127.124,-71.6966C122.008,-63.5589 115.805,-53.689 110.155,-44.7013"/>
<polygon fill="grey" stroke="grey" points="113.036,-42.7081 104.751,-36.1043 107.11,-46.4333 113.036,-42.7081"/>
</g>
</g>
</svg>
