<?xml version="1.0" encoding="UTF-8" standalone="no"?>
<!DOCTYPE svg PUBLIC "-//W3C//DTD SVG 1.1//EN"
 "http://www.w3.org/Graphics/SVG/1.1/DTD/svg11.dtd">
<!-- Generated by graphviz version 2.30.1 (20201013.1554)
 -->
<!-- Title: snakemake_dag Pages: 1 -->
<svg width="106pt" height="116pt"
 viewBox="0.00 0.00 106.00 116.00" xmlns="http://www.w3.org/2000/svg" xmlns:xlink="http://www.w3.org/1999/xlink">
<g id="graph0" class="graph" transform="scale(1 1) rotate(0) translate(4 112)">
<title>snakemake_dag</title>
<polygon fill="white" stroke="white" points="-4,5 -4,-112 103,-112 103,5 -4,5"/>
<!-- 0 -->
<g id="node1" class="node"><title>0</title>
<path fill="none" stroke="#59d856" stroke-width="2" stroke-dasharray="5,2" d="M64,-36C64,-36 34,-36 34,-36 28,-36 22,-30 22,-24 22,-24 22,-12 22,-12 22,-6 28,-0 34,-0 34,-0 64,-0 64,-0 70,-0 76,-6 76,-12 76,-12 76,-24 76,-24 76,-30 70,-36 64,-36"/>
<text text-anchor="middle" x="49" y="-15.5" font-family="sans" font-size="10.00">all</text>
</g>
<!-- 1 -->
<g id="node2" class="node"><title>1</title>
<path fill="none" stroke="#d85656" stroke-width="2" stroke-dasharray="5,2" d="M86.25,-108C86.25,-108 11.75,-108 11.75,-108 5.75,-108 -0.25,-102 -0.25,-96 -0.25,-96 -0.25,-84 -0.25,-84 -0.25,-78 5.75,-72 11.75,-72 11.75,-72 86.25,-72 86.25,-72 92.25,-72 98.25,-78 98.25,-84 98.25,-84 98.25,-96 98.25,-96 98.25,-102 92.25,-108 86.25,-108"/>
<text text-anchor="middle" x="49" y="-93" font-family="sans" font-size="10.00">run_tapestri</text>
<text text-anchor="middle" x="49" y="-82" font-family="sans" font-size="10.00">sample: testdata</text>
</g>
<!-- 1&#45;&gt;0 -->
<g id="edge1" class="edge"><title>1&#45;&gt;0</title>
<path fill="none" stroke="grey" stroke-width="2" d="M49,-71.6966C49,-63.9827 49,-54.7125 49,-46.1124"/>
<polygon fill="grey" stroke="grey" points="52.5001,-46.1043 49,-36.1043 45.5001,-46.1044 52.5001,-46.1043"/>
</g>
</g>
</svg>
