<?xml version="1.0" encoding="UTF-8" standalone="no"?>
<!DOCTYPE svg PUBLIC "-//W3C//DTD SVG 1.1//EN"
 "http://www.w3.org/Graphics/SVG/1.1/DTD/svg11.dtd">
<!-- Generated by graphviz version 2.30.1 (20201013.1554)
 -->
<!-- Title: snakemake_dag Pages: 1 -->
<svg width="110pt" height="116pt"
 viewBox="0.00 0.00 110.00 116.00" xmlns="http://www.w3.org/2000/svg" xmlns:xlink="http://www.w3.org/1999/xlink">
<g id="graph0" class="graph" transform="scale(1 1) rotate(0) translate(4 112)">
<title>snakemake_dag</title>
<polygon fill="white" stroke="white" points="-4,5 -4,-112 107,-112 107,5 -4,5"/>
<!-- 0 -->
<g id="node1" class="node"><title>0</title>
<path fill="none" stroke="#59d856" stroke-width="2" d="M66,-36C66,-36 36,-36 36,-36 30,-36 24,-30 24,-24 24,-24 24,-12 24,-12 24,-6 30,-0 36,-0 36,-0 66,-0 66,-0 72,-0 78,-6 78,-12 78,-12 78,-24 78,-24 78,-30 72,-36 66,-36"/>
<text text-anchor="middle" x="51" y="-15.5" font-family="sans" font-size="10.00">all</text>
</g>
<!-- 1 -->
<g id="node2" class="node"><title>1</title>
<path fill="none" stroke="#d85656" stroke-width="2" d="M90.25,-108C90.25,-108 11.75,-108 11.75,-108 5.75,-108 -0.25,-102 -0.25,-96 -0.25,-96 -0.25,-84 -0.25,-84 -0.25,-78 5.75,-72 11.75,-72 11.75,-72 90.25,-72 90.25,-72 96.25,-72 102.25,-78 102.25,-84 102.25,-84 102.25,-96 102.25,-96 102.25,-102 96.25,-108 90.25,-108"/>
<text text-anchor="middle" x="51" y="-93" font-family="sans" font-size="10.00">run_tapestri</text>
<text text-anchor="middle" x="51" y="-82" font-family="sans" font-size="10.00">sample: DNA&#45;test</text>
</g>
<!-- 1&#45;&gt;0 -->
<g id="edge1" class="edge"><title>1&#45;&gt;0</title>
<path fill="none" stroke="grey" stroke-width="2" d="M51,-71.6966C51,-63.9827 51,-54.7125 51,-46.1124"/>
<polygon fill="grey" stroke="grey" points="54.5001,-46.1043 51,-36.1043 47.5001,-46.1044 54.5001,-46.1043"/>
</g>
</g>
</svg>
