<?xml version="1.0" encoding="UTF-8" standalone="no"?>
<!DOCTYPE svg PUBLIC "-//W3C//DTD SVG 1.1//EN"
 "http://www.w3.org/Graphics/SVG/1.1/DTD/svg11.dtd">
<!-- Generated by graphviz version 2.30.1 (20201013.1554)
 -->
<!-- Title: snakemake_dag Pages: 1 -->
<svg width="274pt" height="332pt"
 viewBox="0.00 0.00 274.00 332.00" xmlns="http://www.w3.org/2000/svg" xmlns:xlink="http://www.w3.org/1999/xlink">
<g id="graph0" class="graph" transform="scale(1 1) rotate(0) translate(4 328)">
<title>snakemake_dag</title>
<polygon fill="white" stroke="white" points="-4,5 -4,-328 271,-328 271,5 -4,5"/>
<!-- 0 -->
<g id="node1" class="node"><title>0</title>
<path fill="none" stroke="#d8bc56" stroke-width="2" stroke-dasharray="5,2" d="M148,-36C148,-36 118,-36 118,-36 112,-36 106,-30 106,-24 106,-24 106,-12 106,-12 106,-6 112,-0 118,-0 118,-0 148,-0 148,-0 154,-0 160,-6 160,-12 160,-12 160,-24 160,-24 160,-30 154,-36 148,-36"/>
<text text-anchor="middle" x="133" y="-15.5" font-family="sans" font-size="10.00">all</text>
</g>
<!-- 1 -->
<g id="node2" class="node"><title>1</title>
<path fill="none" stroke="#56d88a" stroke-width="2" stroke-dasharray="5,2" d="M174,-108C174,-108 92,-108 92,-108 86,-108 80,-102 80,-96 80,-96 80,-84 80,-84 80,-78 86,-72 92,-72 92,-72 174,-72 174,-72 180,-72 186,-78 186,-84 186,-84 186,-96 186,-96 186,-102 180,-108 174,-108"/>
<text text-anchor="middle" x="133" y="-87.5" font-family="sans" font-size="10.00">preprocess_seurat</text>
</g>
<!-- 1&#45;&gt;0 -->
<g id="edge1" class="edge"><title>1&#45;&gt;0</title>
<path fill="none" stroke="grey" stroke-width="2" d="M133,-71.6966C133,-63.9827 133,-54.7125 133,-46.1124"/>
<polygon fill="grey" stroke="grey" points="136.5,-46.1043 133,-36.1043 129.5,-46.1044 136.5,-46.1043"/>
</g>
<!-- 2 -->
<g id="node3" class="node"><title>2</title>
<path fill="none" stroke="#88d856" stroke-width="2" stroke-dasharray="5,2" d="M180.25,-180C180.25,-180 85.75,-180 85.75,-180 79.75,-180 73.75,-174 73.75,-168 73.75,-168 73.75,-156 73.75,-156 73.75,-150 79.75,-144 85.75,-144 85.75,-144 180.25,-144 180.25,-144 186.25,-144 192.25,-150 192.25,-156 192.25,-156 192.25,-168 192.25,-168 192.25,-174 186.25,-180 180.25,-180"/>
<text text-anchor="middle" x="133" y="-159.5" font-family="sans" font-size="10.00">cellranger_atac_aggr</text>
</g>
<!-- 2&#45;&gt;1 -->
<g id="edge2" class="edge"><title>2&#45;&gt;1</title>
<path fill="none" stroke="grey" stroke-width="2" d="M133,-143.697C133,-135.983 133,-126.712 133,-118.112"/>
<polygon fill="grey" stroke="grey" points="136.5,-118.104 133,-108.104 129.5,-118.104 136.5,-118.104"/>
</g>
<!-- 3 -->
<g id="node4" class="node"><title>3</title>
<path fill="none" stroke="#56c1d8" stroke-width="2" stroke-dasharray="5,2" d="M151,-252C151,-252 115,-252 115,-252 109,-252 103,-246 103,-240 103,-240 103,-228 103,-228 103,-222 109,-216 115,-216 115,-216 151,-216 151,-216 157,-216 163,-222 163,-228 163,-228 163,-240 163,-240 163,-246 157,-252 151,-252"/>
<text text-anchor="middle" x="133" y="-231.5" font-family="sans" font-size="10.00">aggr_csv</text>
</g>
<!-- 3&#45;&gt;2 -->
<g id="edge3" class="edge"><title>3&#45;&gt;2</title>
<path fill="none" stroke="grey" stroke-width="2" d="M133,-215.697C133,-207.983 133,-198.712 133,-190.112"/>
<polygon fill="grey" stroke="grey" points="136.5,-190.104 133,-180.104 129.5,-190.104 136.5,-190.104"/>
</g>
<!-- 4 -->
<g id="node5" class="node"><title>4</title>
<path fill="none" stroke="#d85656" stroke-width="2" stroke-dasharray="5,2" d="M112,-324C112,-324 12,-324 12,-324 6,-324 0,-318 0,-312 0,-312 0,-300 0,-300 0,-294 6,-288 12,-288 12,-288 112,-288 112,-288 118,-288 124,-294 124,-300 124,-300 124,-312 124,-312 124,-318 118,-324 112,-324"/>
<text text-anchor="middle" x="62" y="-309" font-family="sans" font-size="10.00">cellranger_atac_count</text>
<text text-anchor="middle" x="62" y="-298" font-family="sans" font-size="10.00">sample: REH</text>
</g>
<!-- 4&#45;&gt;3 -->
<g id="edge4" class="edge"><title>4&#45;&gt;3</title>
<path fill="none" stroke="grey" stroke-width="2" d="M79.5506,-287.697C88.2345,-279.135 98.863,-268.656 108.348,-259.304"/>
<polygon fill="grey" stroke="grey" points="110.988,-261.617 115.651,-252.104 106.073,-256.633 110.988,-261.617"/>
</g>
<!-- 5 -->
<g id="node6" class="node"><title>5</title>
<path fill="none" stroke="#d85656" stroke-width="2" stroke-dasharray="5,2" d="M254,-324C254,-324 154,-324 154,-324 148,-324 142,-318 142,-312 142,-312 142,-300 142,-300 142,-294 148,-288 154,-288 154,-288 254,-288 254,-288 260,-288 266,-294 266,-300 266,-300 266,-312 266,-312 266,-318 260,-324 254,-324"/>
<text text-anchor="middle" x="204" y="-309" font-family="sans" font-size="10.00">cellranger_atac_count</text>
<text text-anchor="middle" x="204" y="-298" font-family="sans" font-size="10.00">sample: GM12078</text>
</g>
<!-- 5&#45;&gt;3 -->
<g id="edge5" class="edge"><title>5&#45;&gt;3</title>
<path fill="none" stroke="grey" stroke-width="2" d="M186.449,-287.697C177.766,-279.135 167.137,-268.656 157.652,-259.304"/>
<polygon fill="grey" stroke="grey" points="159.927,-256.633 150.349,-252.104 155.012,-261.617 159.927,-256.633"/>
</g>
</g>
</svg>
