<?xml version="1.0" encoding="UTF-8" standalone="no"?>
<!DOCTYPE svg PUBLIC "-//W3C//DTD SVG 1.1//EN"
 "http://www.w3.org/Graphics/SVG/1.1/DTD/svg11.dtd">
<!-- Generated by graphviz version 2.30.1 (20201013.1554)
 -->
<!-- Title: snakemake_dag Pages: 1 -->
<svg width="274pt" height="188pt"
 viewBox="0.00 0.00 274.00 188.00" xmlns="http://www.w3.org/2000/svg" xmlns:xlink="http://www.w3.org/1999/xlink">
<g id="graph0" class="graph" transform="scale(1 1) rotate(0) translate(4 184)">
<title>snakemake_dag</title>
<polygon fill="white" stroke="white" points="-4,5 -4,-184 271,-184 271,5 -4,5"/>
<!-- 0 -->
<g id="node1" class="node"><title>0</title>
<path fill="none" stroke="#d85656" stroke-width="2" stroke-dasharray="5,2" d="M148,-36C148,-36 118,-36 118,-36 112,-36 106,-30 106,-24 106,-24 106,-12 106,-12 106,-6 112,-0 118,-0 118,-0 148,-0 148,-0 154,-0 160,-6 160,-12 160,-12 160,-24 160,-24 160,-30 154,-36 148,-36"/>
<text text-anchor="middle" x="133" y="-15.5" font-family="sans" font-size="10.00">all</text>
</g>
<!-- 1 -->
<g id="node2" class="node"><title>1</title>
<path fill="none" stroke="#56d8a9" stroke-width="2" stroke-dasharray="5,2" d="M163,-108C163,-108 103,-108 103,-108 97,-108 91,-102 91,-96 91,-96 91,-84 91,-84 91,-78 97,-72 103,-72 103,-72 163,-72 163,-72 169,-72 175,-78 175,-84 175,-84 175,-96 175,-96 175,-102 169,-108 163,-108"/>
<text text-anchor="middle" x="133" y="-87.5" font-family="sans" font-size="10.00">merge_seurat</text>
</g>
<!-- 1&#45;&gt;0 -->
<g id="edge1" class="edge"><title>1&#45;&gt;0</title>
<path fill="none" stroke="grey" stroke-width="2" d="M133,-71.6966C133,-63.9827 133,-54.7125 133,-46.1124"/>
<polygon fill="grey" stroke="grey" points="136.5,-46.1043 133,-36.1043 129.5,-46.1044 136.5,-46.1043"/>
</g>
<!-- 2 -->
<g id="node3" class="node"><title>2</title>
<path fill="none" stroke="#afd856" stroke-width="2" stroke-dasharray="5,2" d="M112,-180C112,-180 12,-180 12,-180 6,-180 0,-174 0,-168 0,-168 0,-156 0,-156 0,-150 6,-144 12,-144 12,-144 112,-144 112,-144 118,-144 124,-150 124,-156 124,-156 124,-168 124,-168 124,-174 118,-180 112,-180"/>
<text text-anchor="middle" x="62" y="-165" font-family="sans" font-size="10.00">cellranger_atac_count</text>
<text text-anchor="middle" x="62" y="-154" font-family="sans" font-size="10.00">sample: REH</text>
</g>
<!-- 2&#45;&gt;1 -->
<g id="edge2" class="edge"><title>2&#45;&gt;1</title>
<path fill="none" stroke="grey" stroke-width="2" d="M79.5506,-143.697C88.2345,-135.135 98.863,-124.656 108.348,-115.304"/>
<polygon fill="grey" stroke="grey" points="110.988,-117.617 115.651,-108.104 106.073,-112.633 110.988,-117.617"/>
</g>
<!-- 3 -->
<g id="node4" class="node"><title>3</title>
<path fill="none" stroke="#afd856" stroke-width="2" stroke-dasharray="5,2" d="M254,-180C254,-180 154,-180 154,-180 148,-180 142,-174 142,-168 142,-168 142,-156 142,-156 142,-150 148,-144 154,-144 154,-144 254,-144 254,-144 260,-144 266,-150 266,-156 266,-156 266,-168 266,-168 266,-174 260,-180 254,-180"/>
<text text-anchor="middle" x="204" y="-165" font-family="sans" font-size="10.00">cellranger_atac_count</text>
<text text-anchor="middle" x="204" y="-154" font-family="sans" font-size="10.00">sample: GM12078</text>
</g>
<!-- 3&#45;&gt;1 -->
<g id="edge3" class="edge"><title>3&#45;&gt;1</title>
<path fill="none" stroke="grey" stroke-width="2" d="M186.449,-143.697C177.766,-135.135 167.137,-124.656 157.652,-115.304"/>
<polygon fill="grey" stroke="grey" points="159.927,-112.633 150.349,-108.104 155.012,-117.617 159.927,-112.633"/>
</g>
</g>
</svg>
