<?xml version="1.0" encoding="UTF-8" standalone="no"?>
<!DOCTYPE svg PUBLIC "-//W3C//DTD SVG 1.1//EN"
 "http://www.w3.org/Graphics/SVG/1.1/DTD/svg11.dtd">
<!-- Generated by graphviz version 2.30.1 (20201013.1554)
 -->
<!-- Title: snakemake_dag Pages: 1 -->
<svg width="320pt" height="260pt"
 viewBox="0.00 0.00 320.00 260.00" xmlns="http://www.w3.org/2000/svg" xmlns:xlink="http://www.w3.org/1999/xlink">
<g id="graph0" class="graph" transform="scale(1 1) rotate(0) translate(4 256)">
<title>snakemake_dag</title>
<polygon fill="white" stroke="white" points="-4,5 -4,-256 317,-256 317,5 -4,5"/>
<!-- 0 -->
<g id="node1" class="node"><title>0</title>
<path fill="none" stroke="#88d856" stroke-width="2" stroke-dasharray="5,2" d="M206,-36C206,-36 176,-36 176,-36 170,-36 164,-30 164,-24 164,-24 164,-12 164,-12 164,-6 170,-0 176,-0 176,-0 206,-0 206,-0 212,-0 218,-6 218,-12 218,-12 218,-24 218,-24 218,-30 212,-36 206,-36"/>
<text text-anchor="middle" x="191" y="-15.5" font-family="sans" font-size="10.00">all</text>
</g>
<!-- 1 -->
<g id="node2" class="node"><title>1</title>
<path fill="none" stroke="#d8bc56" stroke-width="2" stroke-dasharray="5,2" d="M256,-108C256,-108 196,-108 196,-108 190,-108 184,-102 184,-96 184,-96 184,-84 184,-84 184,-78 190,-72 196,-72 196,-72 256,-72 256,-72 262,-72 268,-78 268,-84 268,-84 268,-96 268,-96 268,-102 262,-108 256,-108"/>
<text text-anchor="middle" x="226" y="-87.5" font-family="sans" font-size="10.00">merge_seurat</text>
</g>
<!-- 1&#45;&gt;0 -->
<g id="edge1" class="edge"><title>1&#45;&gt;0</title>
<path fill="none" stroke="grey" stroke-width="2" d="M217.348,-71.6966C213.364,-63.7284 208.55,-54.0995 204.132,-45.2641"/>
<polygon fill="grey" stroke="grey" points="207.155,-43.4833 199.552,-36.1043 200.894,-46.6139 207.155,-43.4833"/>
</g>
<!-- 2 -->
<g id="node3" class="node"><title>2</title>
<path fill="none" stroke="#56d88a" stroke-width="2" stroke-dasharray="5,2" d="M300,-180C300,-180 218,-180 218,-180 212,-180 206,-174 206,-168 206,-168 206,-156 206,-156 206,-150 212,-144 218,-144 218,-144 300,-144 300,-144 306,-144 312,-150 312,-156 312,-156 312,-168 312,-168 312,-174 306,-180 300,-180"/>
<text text-anchor="middle" x="259" y="-159.5" font-family="sans" font-size="10.00">preprocess_seurat</text>
</g>
<!-- 2&#45;&gt;1 -->
<g id="edge3" class="edge"><title>2&#45;&gt;1</title>
<path fill="none" stroke="grey" stroke-width="2" d="M250.843,-143.697C247.086,-135.728 242.547,-126.1 238.382,-117.264"/>
<polygon fill="grey" stroke="grey" points="241.494,-115.657 234.063,-108.104 235.162,-118.642 241.494,-115.657"/>
</g>
<!-- 3 -->
<g id="node4" class="node"><title>3</title>
<path fill="none" stroke="#56c1d8" stroke-width="2" stroke-dasharray="5,2" d="M293,-252C293,-252 193,-252 193,-252 187,-252 181,-246 181,-240 181,-240 181,-228 181,-228 181,-222 187,-216 193,-216 193,-216 293,-216 293,-216 299,-216 305,-222 305,-228 305,-228 305,-240 305,-240 305,-246 299,-252 293,-252"/>
<text text-anchor="middle" x="243" y="-237" font-family="sans" font-size="10.00">cellranger_atac_count</text>
<text text-anchor="middle" x="243" y="-226" font-family="sans" font-size="10.00">sample: REH</text>
</g>
<!-- 3&#45;&gt;2 -->
<g id="edge5" class="edge"><title>3&#45;&gt;2</title>
<path fill="none" stroke="grey" stroke-width="2" d="M246.955,-215.697C248.718,-207.983 250.837,-198.712 252.803,-190.112"/>
<polygon fill="grey" stroke="grey" points="256.274,-190.633 255.09,-180.104 249.45,-189.073 256.274,-190.633"/>
</g>
<!-- 6 -->
<g id="node7" class="node"><title>6</title>
<path fill="none" stroke="#d85656" stroke-width="2" stroke-dasharray="5,2" d="M175.25,-180C175.25,-180 136.75,-180 136.75,-180 130.75,-180 124.75,-174 124.75,-168 124.75,-168 124.75,-156 124.75,-156 124.75,-150 130.75,-144 136.75,-144 136.75,-144 175.25,-144 175.25,-144 181.25,-144 187.25,-150 187.25,-156 187.25,-156 187.25,-168 187.25,-168 187.25,-174 181.25,-180 175.25,-180"/>
<text text-anchor="middle" x="156" y="-159.5" font-family="sans" font-size="10.00">summary</text>
</g>
<!-- 3&#45;&gt;6 -->
<g id="edge7" class="edge"><title>3&#45;&gt;6</title>
<path fill="none" stroke="grey" stroke-width="2" d="M221.494,-215.697C210.537,-206.881 197.054,-196.032 185.175,-186.474"/>
<polygon fill="grey" stroke="grey" points="187.244,-183.646 177.258,-180.104 182.855,-189.1 187.244,-183.646"/>
</g>
<!-- 4 -->
<g id="node5" class="node"><title>4</title>
<path fill="none" stroke="#56d88a" stroke-width="2" stroke-dasharray="5,2" d="M94,-180C94,-180 12,-180 12,-180 6,-180 0,-174 0,-168 0,-168 0,-156 0,-156 0,-150 6,-144 12,-144 12,-144 94,-144 94,-144 100,-144 106,-150 106,-156 106,-156 106,-168 106,-168 106,-174 100,-180 94,-180"/>
<text text-anchor="middle" x="53" y="-159.5" font-family="sans" font-size="10.00">preprocess_seurat</text>
</g>
<!-- 4&#45;&gt;1 -->
<g id="edge4" class="edge"><title>4&#45;&gt;1</title>
<path fill="none" stroke="grey" stroke-width="2" d="M95.3206,-143.876C119.181,-134.222 149.172,-122.087 174.403,-111.878"/>
<polygon fill="grey" stroke="grey" points="175.86,-115.064 183.817,-108.068 173.234,-108.575 175.86,-115.064"/>
</g>
<!-- 5 -->
<g id="node6" class="node"><title>5</title>
<path fill="none" stroke="#56c1d8" stroke-width="2" stroke-dasharray="5,2" d="M135,-252C135,-252 35,-252 35,-252 29,-252 23,-246 23,-240 23,-240 23,-228 23,-228 23,-222 29,-216 35,-216 35,-216 135,-216 135,-216 141,-216 147,-222 147,-228 147,-228 147,-240 147,-240 147,-246 141,-252 135,-252"/>
<text text-anchor="middle" x="85" y="-237" font-family="sans" font-size="10.00">cellranger_atac_count</text>
<text text-anchor="middle" x="85" y="-226" font-family="sans" font-size="10.00">sample: GM12078</text>
</g>
<!-- 5&#45;&gt;4 -->
<g id="edge6" class="edge"><title>5&#45;&gt;4</title>
<path fill="none" stroke="grey" stroke-width="2" d="M77.0899,-215.697C73.4473,-207.728 69.0455,-198.1 65.0065,-189.264"/>
<polygon fill="grey" stroke="grey" points="68.1599,-187.744 60.8191,-180.104 61.7936,-190.654 68.1599,-187.744"/>
</g>
<!-- 5&#45;&gt;6 -->
<g id="edge8" class="edge"><title>5&#45;&gt;6</title>
<path fill="none" stroke="grey" stroke-width="2" d="M102.551,-215.697C111.234,-207.135 121.863,-196.656 131.348,-187.304"/>
<polygon fill="grey" stroke="grey" points="133.988,-189.617 138.651,-180.104 129.073,-184.633 133.988,-189.617"/>
</g>
<!-- 6&#45;&gt;0 -->
<g id="edge2" class="edge"><title>6&#45;&gt;0</title>
<path fill="none" stroke="grey" stroke-width="2" d="M159.225,-143.84C162.709,-125.844 168.624,-96.7884 175,-72 177.213,-63.3969 179.913,-54.0977 182.461,-45.7264"/>
<polygon fill="grey" stroke="grey" points="185.832,-46.6725 185.45,-36.0845 179.146,-44.5999 185.832,-46.6725"/>
</g>
</g>
</svg>
