<?xml version="1.0" encoding="UTF-8" standalone="no"?>
<!DOCTYPE svg PUBLIC "-//W3C//DTD SVG 1.1//EN"
 "http://www.w3.org/Graphics/SVG/1.1/DTD/svg11.dtd">
<!-- Generated by graphviz version 2.30.1 (20201013.1554)
 -->
<!-- Title: snakemake_dag Pages: 1 -->
<svg width="274pt" height="260pt"
 viewBox="0.00 0.00 274.00 260.00" xmlns="http://www.w3.org/2000/svg" xmlns:xlink="http://www.w3.org/1999/xlink">
<g id="graph0" class="graph" transform="scale(1 1) rotate(0) translate(4 256)">
<title>snakemake_dag</title>
<polygon fill="white" stroke="white" points="-4,5 -4,-256 271,-256 271,5 -4,5"/>
<!-- 0 -->
<g id="node1" class="node"><title>0</title>
<path fill="none" stroke="#d85656" stroke-width="2" d="M147,-36C147,-36 117,-36 117,-36 111,-36 105,-30 105,-24 105,-24 105,-12 105,-12 105,-6 111,-0 117,-0 117,-0 147,-0 147,-0 153,-0 159,-6 159,-12 159,-12 159,-24 159,-24 159,-30 153,-36 147,-36"/>
<text text-anchor="middle" x="132" y="-15.5" font-family="sans" font-size="10.00">all</text>
</g>
<!-- 1 -->
<g id="node2" class="node"><title>1</title>
<path fill="none" stroke="#59d856" stroke-width="2" d="M162,-108C162,-108 102,-108 102,-108 96,-108 90,-102 90,-96 90,-96 90,-84 90,-84 90,-78 96,-72 102,-72 102,-72 162,-72 162,-72 168,-72 174,-78 174,-84 174,-84 174,-96 174,-96 174,-102 168,-108 162,-108"/>
<text text-anchor="middle" x="132" y="-87.5" font-family="sans" font-size="10.00">merge_seurat</text>
</g>
<!-- 1&#45;&gt;0 -->
<g id="edge1" class="edge"><title>1&#45;&gt;0</title>
<path fill="none" stroke="grey" stroke-width="2" d="M132,-71.6966C132,-63.9827 132,-54.7125 132,-46.1124"/>
<polygon fill="grey" stroke="grey" points="135.5,-46.1043 132,-36.1043 128.5,-46.1044 135.5,-46.1043"/>
</g>
<!-- 2 -->
<g id="node3" class="node"><title>2</title>
<path fill="none" stroke="#d6d856" stroke-width="2" stroke-dasharray="5,2" d="M107,-180C107,-180 25,-180 25,-180 19,-180 13,-174 13,-168 13,-168 13,-156 13,-156 13,-150 19,-144 25,-144 25,-144 107,-144 107,-144 113,-144 119,-150 119,-156 119,-156 119,-168 119,-168 119,-174 113,-180 107,-180"/>
<text text-anchor="middle" x="66" y="-159.5" font-family="sans" font-size="10.00">preprocess_seurat</text>
</g>
<!-- 2&#45;&gt;1 -->
<g id="edge2" class="edge"><title>2&#45;&gt;1</title>
<path fill="none" stroke="grey" stroke-width="2" d="M82.3146,-143.697C90.307,-135.22 100.072,-124.864 108.822,-115.583"/>
<polygon fill="grey" stroke="grey" points="111.559,-117.781 115.873,-108.104 106.466,-112.979 111.559,-117.781"/>
</g>
<!-- 3 -->
<g id="node4" class="node"><title>3</title>
<path fill="none" stroke="#56d8d8" stroke-width="2" stroke-dasharray="5,2" d="M112,-252C112,-252 12,-252 12,-252 6,-252 0,-246 0,-240 0,-240 0,-228 0,-228 0,-222 6,-216 12,-216 12,-216 112,-216 112,-216 118,-216 124,-222 124,-228 124,-228 124,-240 124,-240 124,-246 118,-252 112,-252"/>
<text text-anchor="middle" x="62" y="-237" font-family="sans" font-size="10.00">cellranger_atac_count</text>
<text text-anchor="middle" x="62" y="-226" font-family="sans" font-size="10.00">sample: REH</text>
</g>
<!-- 3&#45;&gt;2 -->
<g id="edge4" class="edge"><title>3&#45;&gt;2</title>
<path fill="none" stroke="grey" stroke-width="2" d="M62.9888,-215.697C63.4296,-207.983 63.9593,-198.712 64.4507,-190.112"/>
<polygon fill="grey" stroke="grey" points="67.9463,-190.288 65.0226,-180.104 60.9577,-189.888 67.9463,-190.288"/>
</g>
<!-- 4 -->
<g id="node5" class="node"><title>4</title>
<path fill="none" stroke="#d6d856" stroke-width="2" stroke-dasharray="5,2" d="M240,-180C240,-180 158,-180 158,-180 152,-180 146,-174 146,-168 146,-168 146,-156 146,-156 146,-150 152,-144 158,-144 158,-144 240,-144 240,-144 246,-144 252,-150 252,-156 252,-156 252,-168 252,-168 252,-174 246,-180 240,-180"/>
<text text-anchor="middle" x="199" y="-159.5" font-family="sans" font-size="10.00">preprocess_seurat</text>
</g>
<!-- 4&#45;&gt;1 -->
<g id="edge3" class="edge"><title>4&#45;&gt;1</title>
<path fill="none" stroke="grey" stroke-width="2" d="M182.438,-143.697C174.325,-135.22 164.412,-124.864 155.529,-115.583"/>
<polygon fill="grey" stroke="grey" points="157.814,-112.908 148.371,-108.104 152.757,-117.749 157.814,-112.908"/>
</g>
<!-- 5 -->
<g id="node6" class="node"><title>5</title>
<path fill="none" stroke="#56d8d8" stroke-width="2" stroke-dasharray="5,2" d="M254,-252C254,-252 154,-252 154,-252 148,-252 142,-246 142,-240 142,-240 142,-228 142,-228 142,-222 148,-216 154,-216 154,-216 254,-216 254,-216 260,-216 266,-222 266,-228 266,-228 266,-240 266,-240 266,-246 260,-252 254,-252"/>
<text text-anchor="middle" x="204" y="-237" font-family="sans" font-size="10.00">cellranger_atac_count</text>
<text text-anchor="middle" x="204" y="-226" font-family="sans" font-size="10.00">sample: GM12078</text>
</g>
<!-- 5&#45;&gt;4 -->
<g id="edge5" class="edge"><title>5&#45;&gt;4</title>
<path fill="none" stroke="grey" stroke-width="2" d="M202.764,-215.697C202.213,-207.983 201.551,-198.712 200.937,-190.112"/>
<polygon fill="grey" stroke="grey" points="204.425,-189.83 200.222,-180.104 197.443,-190.328 204.425,-189.83"/>
</g>
</g>
</svg>
