<?xml version="1.0" encoding="UTF-8" standalone="no"?>
<!DOCTYPE svg PUBLIC "-//W3C//DTD SVG 1.1//EN"
 "http://www.w3.org/Graphics/SVG/1.1/DTD/svg11.dtd">
<!-- Generated by graphviz version 2.30.1 (20201013.1554)
 -->
<!-- Title: snakemake_dag Pages: 1 -->
<svg width="274pt" height="188pt"
 viewBox="0.00 0.00 274.00 188.00" xmlns="http://www.w3.org/2000/svg" xmlns:xlink="http://www.w3.org/1999/xlink">
<g id="graph0" class="graph" transform="scale(1 1) rotate(0) translate(4 184)">
<title>snakemake_dag</title>
<polygon fill="white" stroke="white" points="-4,5 -4,-184 271,-184 271,5 -4,5"/>
<!-- 0 -->
<g id="node1" class="node"><title>0</title>
<path fill="none" stroke="#afd856" stroke-width="2" stroke-dasharray="5,2" d="M147,-36C147,-36 117,-36 117,-36 111,-36 105,-30 105,-24 105,-24 105,-12 105,-12 105,-6 111,-0 117,-0 117,-0 147,-0 147,-0 153,-0 159,-6 159,-12 159,-12 159,-24 159,-24 159,-30 153,-36 147,-36"/>
<text text-anchor="middle" x="132" y="-15.5" font-family="sans" font-size="10.00">all</text>
</g>
<!-- 1 -->
<g id="node2" class="node"><title>1</title>
<path fill="none" stroke="#56d8a9" stroke-width="2" stroke-dasharray="5,2" d="M107,-108C107,-108 25,-108 25,-108 19,-108 13,-102 13,-96 13,-96 13,-84 13,-84 13,-78 19,-72 25,-72 25,-72 107,-72 107,-72 113,-72 119,-78 119,-84 119,-84 119,-96 119,-96 119,-102 113,-108 107,-108"/>
<text text-anchor="middle" x="66" y="-87.5" font-family="sans" font-size="10.00">preprocess_seurat</text>
</g>
<!-- 1&#45;&gt;0 -->
<g id="edge1" class="edge"><title>1&#45;&gt;0</title>
<path fill="none" stroke="grey" stroke-width="2" d="M82.3146,-71.6966C90.307,-63.2198 100.072,-52.8636 108.822,-43.5826"/>
<polygon fill="grey" stroke="grey" points="111.559,-45.7813 115.873,-36.1043 106.466,-40.9792 111.559,-45.7813"/>
</g>
<!-- 2 -->
<g id="node3" class="node"><title>2</title>
<path fill="none" stroke="#d85656" stroke-width="2" stroke-dasharray="5,2" d="M112,-180C112,-180 12,-180 12,-180 6,-180 0,-174 0,-168 0,-168 0,-156 0,-156 0,-150 6,-144 12,-144 12,-144 112,-144 112,-144 118,-144 124,-150 124,-156 124,-156 124,-168 124,-168 124,-174 118,-180 112,-180"/>
<text text-anchor="middle" x="62" y="-165" font-family="sans" font-size="10.00">cellranger_atac_count</text>
<text text-anchor="middle" x="62" y="-154" font-family="sans" font-size="10.00">sample: REH</text>
</g>
<!-- 2&#45;&gt;1 -->
<g id="edge3" class="edge"><title>2&#45;&gt;1</title>
<path fill="none" stroke="grey" stroke-width="2" d="M62.9888,-143.697C63.4296,-135.983 63.9593,-126.712 64.4507,-118.112"/>
<polygon fill="grey" stroke="grey" points="67.9463,-118.288 65.0226,-108.104 60.9577,-117.888 67.9463,-118.288"/>
</g>
<!-- 3 -->
<g id="node4" class="node"><title>3</title>
<path fill="none" stroke="#56d8a9" stroke-width="2" stroke-dasharray="5,2" d="M240,-108C240,-108 158,-108 158,-108 152,-108 146,-102 146,-96 146,-96 146,-84 146,-84 146,-78 152,-72 158,-72 158,-72 240,-72 240,-72 246,-72 252,-78 252,-84 252,-84 252,-96 252,-96 252,-102 246,-108 240,-108"/>
<text text-anchor="middle" x="199" y="-87.5" font-family="sans" font-size="10.00">preprocess_seurat</text>
</g>
<!-- 3&#45;&gt;0 -->
<g id="edge2" class="edge"><title>3&#45;&gt;0</title>
<path fill="none" stroke="grey" stroke-width="2" d="M182.438,-71.6966C174.325,-63.2198 164.412,-52.8636 155.529,-43.5826"/>
<polygon fill="grey" stroke="grey" points="157.814,-40.9084 148.371,-36.1043 152.757,-45.7486 157.814,-40.9084"/>
</g>
<!-- 4 -->
<g id="node5" class="node"><title>4</title>
<path fill="none" stroke="#d85656" stroke-width="2" stroke-dasharray="5,2" d="M254,-180C254,-180 154,-180 154,-180 148,-180 142,-174 142,-168 142,-168 142,-156 142,-156 142,-150 148,-144 154,-144 154,-144 254,-144 254,-144 260,-144 266,-150 266,-156 266,-156 266,-168 266,-168 266,-174 260,-180 254,-180"/>
<text text-anchor="middle" x="204" y="-165" font-family="sans" font-size="10.00">cellranger_atac_count</text>
<text text-anchor="middle" x="204" y="-154" font-family="sans" font-size="10.00">sample: GM12078</text>
</g>
<!-- 4&#45;&gt;3 -->
<g id="edge4" class="edge"><title>4&#45;&gt;3</title>
<path fill="none" stroke="grey" stroke-width="2" d="M202.764,-143.697C202.213,-135.983 201.551,-126.712 200.937,-118.112"/>
<polygon fill="grey" stroke="grey" points="204.425,-117.83 200.222,-108.104 197.443,-118.328 204.425,-117.83"/>
</g>
</g>
</svg>
