<?xml version="1.0" encoding="UTF-8" standalone="no"?>
<!DOCTYPE svg PUBLIC "-//W3C//DTD SVG 1.1//EN"
 "http://www.w3.org/Graphics/SVG/1.1/DTD/svg11.dtd">
<!-- Generated by graphviz version 2.30.1 (20201013.1554)
 -->
<!-- Title: snakemake_dag Pages: 1 -->
<svg width="274pt" height="260pt"
 viewBox="0.00 0.00 274.00 260.00" xmlns="http://www.w3.org/2000/svg" xmlns:xlink="http://www.w3.org/1999/xlink">
<g id="graph0" class="graph" transform="scale(1 1) rotate(0) translate(4 256)">
<title>snakemake_dag</title>
<polygon fill="white" stroke="white" points="-4,5 -4,-256 271,-256 271,5 -4,5"/>
<!-- 0 -->
<g id="node1" class="node"><title>0</title>
<path fill="none" stroke="#56d8d8" stroke-width="2" stroke-dasharray="5,2" d="M148,-36C148,-36 118,-36 118,-36 112,-36 106,-30 106,-24 106,-24 106,-12 106,-12 106,-6 112,-0 118,-0 118,-0 148,-0 148,-0 154,-0 160,-6 160,-12 160,-12 160,-24 160,-24 160,-30 154,-36 148,-36"/>
<text text-anchor="middle" x="133" y="-15.5" font-family="sans" font-size="10.00">all</text>
</g>
<!-- 1 -->
<g id="node2" class="node"><title>1</title>
<path fill="none" stroke="#d85656" stroke-width="2" stroke-dasharray="5,2" d="M180.25,-108C180.25,-108 85.75,-108 85.75,-108 79.75,-108 73.75,-102 73.75,-96 73.75,-96 73.75,-84 73.75,-84 73.75,-78 79.75,-72 85.75,-72 85.75,-72 180.25,-72 180.25,-72 186.25,-72 192.25,-78 192.25,-84 192.25,-84 192.25,-96 192.25,-96 192.25,-102 186.25,-108 180.25,-108"/>
<text text-anchor="middle" x="133" y="-87.5" font-family="sans" font-size="10.00">cellranger_atac_aggr</text>
</g>
<!-- 1&#45;&gt;0 -->
<g id="edge1" class="edge"><title>1&#45;&gt;0</title>
<path fill="none" stroke="grey" stroke-width="2" d="M133,-71.6966C133,-63.9827 133,-54.7125 133,-46.1124"/>
<polygon fill="grey" stroke="grey" points="136.5,-46.1043 133,-36.1043 129.5,-46.1044 136.5,-46.1043"/>
</g>
<!-- 2 -->
<g id="node3" class="node"><title>2</title>
<path fill="none" stroke="#59d856" stroke-width="2" stroke-dasharray="5,2" d="M151,-180C151,-180 115,-180 115,-180 109,-180 103,-174 103,-168 103,-168 103,-156 103,-156 103,-150 109,-144 115,-144 115,-144 151,-144 151,-144 157,-144 163,-150 163,-156 163,-156 163,-168 163,-168 163,-174 157,-180 151,-180"/>
<text text-anchor="middle" x="133" y="-159.5" font-family="sans" font-size="10.00">aggr_csv</text>
</g>
<!-- 2&#45;&gt;1 -->
<g id="edge2" class="edge"><title>2&#45;&gt;1</title>
<path fill="none" stroke="grey" stroke-width="2" d="M133,-143.697C133,-135.983 133,-126.712 133,-118.112"/>
<polygon fill="grey" stroke="grey" points="136.5,-118.104 133,-108.104 129.5,-118.104 136.5,-118.104"/>
</g>
<!-- 3 -->
<g id="node4" class="node"><title>3</title>
<path fill="none" stroke="#d6d856" stroke-width="2" stroke-dasharray="5,2" d="M112,-252C112,-252 12,-252 12,-252 6,-252 0,-246 0,-240 0,-240 0,-228 0,-228 0,-222 6,-216 12,-216 12,-216 112,-216 112,-216 118,-216 124,-222 124,-228 124,-228 124,-240 124,-240 124,-246 118,-252 112,-252"/>
<text text-anchor="middle" x="62" y="-237" font-family="sans" font-size="10.00">cellranger_atac_count</text>
<text text-anchor="middle" x="62" y="-226" font-family="sans" font-size="10.00">sample: REH</text>
</g>
<!-- 3&#45;&gt;2 -->
<g id="edge3" class="edge"><title>3&#45;&gt;2</title>
<path fill="none" stroke="grey" stroke-width="2" d="M79.5506,-215.697C88.2345,-207.135 98.863,-196.656 108.348,-187.304"/>
<polygon fill="grey" stroke="grey" points="110.988,-189.617 115.651,-180.104 106.073,-184.633 110.988,-189.617"/>
</g>
<!-- 4 -->
<g id="node5" class="node"><title>4</title>
<path fill="none" stroke="#d6d856" stroke-width="2" stroke-dasharray="5,2" d="M254,-252C254,-252 154,-252 154,-252 148,-252 142,-246 142,-240 142,-240 142,-228 142,-228 142,-222 148,-216 154,-216 154,-216 254,-216 254,-216 260,-216 266,-222 266,-228 266,-228 266,-240 266,-240 266,-246 260,-252 254,-252"/>
<text text-anchor="middle" x="204" y="-237" font-family="sans" font-size="10.00">cellranger_atac_count</text>
<text text-anchor="middle" x="204" y="-226" font-family="sans" font-size="10.00">sample: GM12078</text>
</g>
<!-- 4&#45;&gt;2 -->
<g id="edge4" class="edge"><title>4&#45;&gt;2</title>
<path fill="none" stroke="grey" stroke-width="2" d="M186.449,-215.697C177.766,-207.135 167.137,-196.656 157.652,-187.304"/>
<polygon fill="grey" stroke="grey" points="159.927,-184.633 150.349,-180.104 155.012,-189.617 159.927,-184.633"/>
</g>
</g>
</svg>
